# xmcd
# 
# Track frame offsets:
#     150
#     11775
#     37643
#     62510
#     90981
#     120753
#     146809
#     173833
#     199448
#     227728
#     251332
#     275915
#     300382
#     330122
# 
# Disc length: 4440
# 
# Revision: 3
# Processed by: cddbd v1.5.2PL0 Copyright (c) Steve Scherf et al.
# Submitted via: fre:ac v1.0.31
# 
DISCID=ad11560e
DTITLE=Andy Weir - The Martian [CD1]
DYEAR=2011
DGENRE=Audiobook
TTITLE0=0101
TTITLE1=0102
TTITLE2=0103
TTITLE3=0104
TTITLE4=0105
TTITLE5=0106
TTITLE6=0107
TTITLE7=0108
TTITLE8=0109
TTITLE9=0110
TTITLE10=0111
TTITLE11=0112
TTITLE12=0113
TTITLE13=0114
EXTD=
EXTT0=
EXTT1=
EXTT2=
EXTT3=
EXTT4=
EXTT5=
EXTT6=
EXTT7=
EXTT8=
EXTT9=
EXTT10=
EXTT11=
EXTT12=
EXTT13=
PLAYORDER=
